<svg class="svg" xmlns="http://www.w3.org/2000/svg" xmlns:xlink="http://www.w3.org/1999/xlink" width="10" height="10"><path d="M5 0.610956C2.51525 0.610956 0.5 2.62583 0.5 5.11096C0.5 7.09921 1.78925 8.78596 3.57762 9.38108C3.80225 9.42271 3.875 9.28321 3.875 9.16471V8.32696C2.62325 8.59921 2.36263 7.79596 2.36263 7.79596C2.15788 7.27583 1.86275 7.13746 1.86275 7.13746C1.45438 6.85808 1.89388 6.86408 1.89388 6.86408C2.34575 6.89558 2.5835 7.32796 2.5835 7.32796C2.98475 8.01571 3.63613 7.81696 3.893 7.70183C3.93313 7.41121 4.04975 7.21246 4.17875 7.10033C3.17938 6.98596 2.12862 6.60008 2.12862 4.87621C2.12862 4.38458 2.3045 3.98333 2.59212 3.66833C2.54562 3.55471 2.3915 3.09683 2.636 2.47733C2.636 2.47733 3.014 2.35658 3.87387 2.93858C4.23275 2.83883 4.6175 2.78896 5 2.78708C5.3825 2.78896 5.76762 2.83883 6.12725 2.93858C6.98637 2.35658 7.36362 2.47733 7.36362 2.47733C7.6085 3.09721 7.45437 3.55508 7.40787 3.66833C7.69662 3.98333 7.871 4.38496 7.871 4.87621C7.871 6.60458 6.81837 6.98521 5.81638 7.09658C5.97763 7.23608 6.125 7.50983 6.125 7.92983V9.16471C6.125 9.28433 6.197 9.42496 6.42537 9.38071C8.21225 8.78483 9.5 7.09846 9.5 5.11096C9.5 2.62583 7.48512 0.610956 5 0.610956Z" fill="none" stroke-width="1" stroke="#B3B3B3"></path></svg>